<svg width="20" height="19" viewBox="0 0 20 19" fill="none" xmlns="http://www.w3.org/2000/svg">
<path d="M19.8055 8.13774H19V8.10039H10V11.7004H15.6515C14.827 13.796 12.6115 15.3004 10 15.3004C6.6865 15.3004 4 12.8825 4 9.90039C4 6.91824 6.6865 4.50039 10 4.50039C11.5295 4.50039 12.921 5.01969 13.9805 5.86794L16.809 3.32229C15.023 1.82424 12.634 0.900391 10 0.900391C4.4775 0.900391 0 4.93014 0 9.90039C0 14.8706 4.4775 18.9004 10 18.9004C15.5225 18.9004 20 14.8706 20 9.90039C20 9.29694 19.931 8.70789 19.8055 8.13774Z" fill="#FFC107"/>
<path d="M1.15302 5.71134L4.43851 7.87989C5.32751 5.89899 7.48051 4.50039 10 4.50039C11.5295 4.50039 12.921 5.01969 13.9805 5.86794L16.809 3.32229C15.023 1.82424 12.634 0.900391 10 0.900391C6.15901 0.900391 2.82801 2.85204 1.15302 5.71134Z" fill="#FF3D00"/>
<path d="M10 18.9003C12.583 18.9003 14.93 18.0107 16.7045 16.5639L13.6095 14.2068C12.5718 14.9171 11.3038 15.3012 10 15.3003C7.39903 15.3003 5.19053 13.8077 4.35853 11.7246L1.09753 13.9859C2.75253 16.9005 6.11353 18.9003 10 18.9003Z" fill="#4CAF50"/>
<path d="M19.8055 8.13794H19V8.10059H10V11.7006H15.6515C15.2571 12.698 14.5467 13.5695 13.608 14.2075L13.6095 14.2066L16.7045 16.5637C16.4855 16.7428 20 14.4006 20 9.90059C20 9.29714 19.931 8.70809 19.8055 8.13794Z" fill="#1976D2"/>
</svg>
